<svg version="1.2" xmlns="http://www.w3.org/2000/svg" viewBox="0 0 613 385" width="613" height="385"><style>.a{fill:#fff}</style><path class="a" d="m440.9 224.1c-3.7-3.7-9.6-3.8-13.5-0.4-10.5 9.2-21.2 13.4-37.4 13.4-28.7 0-48.4-18.8-50.8-48.4-0.1-1.7 1.2-3.1 2.9-3.1h76.6c23.5 0 39-24.9 28.2-45.8-2.5-5-5.8-9.7-10.1-13.7-13.5-12.6-27.8-20.7-47.3-20.7-20.7 0-38 7.1-51.3 21-13.3 13.9-20.1 32.3-20.1 55.2v1.1c0 22.1 6.5 40 19.8 53.3 13.3 13.3 30.9 20.1 52.1 20.1 19.9 0 36.7-6.1 50.5-18 4.2-3.6 4.4-10.1 0.4-14zm-46.7-23.9c0 4.4 3.5 7.9 7.9 7.9 4.4 0 7.9-3.5 7.9-7.9 0-4.3-3.5-7.9-7.9-7.9-4.4 0-7.9 3.6-7.9 7.9zm28.2 14.8c-1.2 1.1-1.3 2.8-0.2 4 1 1.1 2.8 1.2 4 0.2 5.6-5.1 14.3-4.6 19.3 1 5.1 5.6 4.7 14.3-1 19.4-1.1 1-1.2 2.8-0.2 3.9 1.1 1.2 2.8 1.3 4 0.3 7.9-7.2 8.6-19.4 1.4-27.4-7.1-7.9-19.4-8.5-27.3-1.4zm154.2-99l-34 90.3c-3.1 8.4-14.9 8.4-18.2 0.1l-35.3-90.6c-1.5-3.7-5.1-6.1-9.1-6.1-6.9 0-11.6 6.9-9.1 13.3l51.2 129c0.9 2.3 0.9 4.8 0 7.1l-4.9 12.6c-3.2 8.1-6.7 13.6-10.8 16.8q-0.5 0.5-1.1 0.8c-3 1.8-7.1 2.8-11.6 2.8q-2 0-3.8-0.2c-5.6-0.4-10.3 4.1-10.3 9.7 0 4.8 3.4 9 8.2 9.6q2.8 0.4 5.9 0.4c11.6 0 20.7-3.7 27.8-10.7 5.4-5.7 9.9-13.6 13.9-24.1l59.4-153.9c2.5-6.4-2.2-13.2-9-13.2h-0.1c-4 0-7.7 2.5-9.1 6.3zm-235.8 47.9c0.8-5.1 4.1-7.4 6.5-10.3q0.5 1.4 1.2 2.8c1.8 3.4 4.7 6.2 8.4 7.3-0.4 1.1-0.4 2.3-0.4 3.5h-12.8c-1.8 0-3.1-1.6-2.9-3.3zm34-15.3c11.8 0 25.4-14.8 33.9-6.6 0.7 0.7 2.8 2.7 5.2 5.1q0.2 0.4 0.5 0.7c1.5 1.2 2.8 2.6 3.4 4.3 0.6 1.4 1.2 3.9 0.4 5.2-1 1.5-4.1 1.9-5.6 2.1-2.3 0.3-4.7 0.2-7 0.2-7.6-0.2-15.4-2.3-23.1-1.8-3.9-0.3-7.8 0.2-11.7 2.3q-0.8-0.6-1.6-1.1c-2.1-1.1-4.6-1.5-6.9-0.8q-1.1 0.3-2.1 1-0.4-0.2-0.9-0.3c-1.2 0-2.7-0.8-3.8-1.7-1.4-1.3-2.3-2.9-3.1-4.7-1-2.5-1.7-5.1-2.7-7.6-0.2-1.5-0.7-3.1-1.4-5-4.6-11.6 13.4 8.7 26.5 8.7zm38 18.6h-0.3c-2.6-0.6-5.2-1.4-7.8-2.3 2.9 0.1 5.7 0 8.5-0.4 4.6-0.6 9.3-2.3 10.3-7 5.7 8.5 1 9.7-10.7 9.7zm-38.6-2.9q1.4-0.6 2.8-0.9c0.5 0.2 1.1 0.3 1.7 0.2q1.6-0.4 3.3-0.5c4.2 0.2 8.4 1.5 12.3 3.1q1.3 0.5 2.5 1h-21.6q-0.3-1.5-1-2.9zm-12.5 2.6q0-0.4 0-0.8c0-0.1 0.2-1 0-0.4q0.1-0.3 0.2-0.6c0-0.1 0.3-0.6 0.2-0.6q0.1-0.2 0.3-0.4 0.1-0.1 0.2-0.2 0.1-0.1 0.2-0.2c0 0 0 0 0 0q0.3-0.2 0.5-0.3 0 0 0 0 0.2-0.1 0.3-0.1 0.3-0.1 0.6-0.2 0 0 0 0 0.1 0 0.3 0 0.3 0 0.7 0 0 0 0.1 0 0 0 0.1 0 0.3 0.2 0.7 0.3 0.1 0 0.1 0 0 0 0.1 0 0.4 0.2 0.7 0.4 0.3 0.2 0.5 0.4c-0.5-0.4 0.2 0.1 0.3 0.2q0.5 0.5 0.9 1c0.1 0.1 0.2 0.3 0.3 0.3q0.2 0.4 0.4 0.7 0.2 0.4 0.4 0.8h-8c-0.1-0.2-0.1-0.3-0.1-0.3zm-5.2 35.2c0 4.4 3.6 7.9 7.9 7.9 4.4 0 8-3.5 8-7.9 0-4.3-3.6-7.9-8-7.9-4.3 0-7.9 3.6-7.9 7.9zm-77.5 12.9v-150.2c0-5.4-4.4-9.8-9.8-9.8h-1.4c-5.4 0-9.7 4.4-9.7 9.8v151.6c0 17.3 5.1 29.2 13.8 34 8.8 4.9 15.6 6.3 25 6.3q0.2 0 0.5 0c5.4-0.1 9.7-4.5 9.7-9.8 0-5.5-4.5-9.8-9.9-9.8q-0.2 0-0.3 0c-13.4 0-17.9-6.2-17.9-22.1zm-208.4 37.4c4.3 0 8.1-2.5 9.8-6.4l15.7-35.9c1.7-3.9 5.5-6.4 9.7-6.4h75c4.3 0 8.1 2.5 9.8 6.4l15.7 35.9c1.7 3.9 5.5 6.4 9.7 6.4h0.8c7.7 0 12.9-7.9 9.8-14.9l-73.2-167.3c-3.7-8.5-15.8-8.5-19.5 0l-73 167.3c-3.1 7.1 2.1 14.9 9.7 14.9zm43.3-83.9l19.6-46c3.7-8.7 16-8.7 19.6 0l19.6 46c3 7-2.1 14.8-9.8 14.8h-39.2c-7.6 0-12.7-7.8-9.8-14.8zm297.5 146.2c0-7.7 2.2-13.9 6.7-18.5 4.5-4.7 10.3-7.1 17.2-7.1 6.6 0 11.8 2.3 15.9 7 4.1 4.5 6.2 10.1 6.2 16.9 0 1.7-1.4 3-3 3h-32.6c-1.9 0-3.4 1.8-3 3.7 1.6 8.4 7.9 13.6 16.7 13.6 5.5 0 9.1-1.4 12.7-4.6 1.2-1.1 3-1.1 4.2 0l0.3 0.4c1.3 1.2 1.2 3.2-0.1 4.4q-7 6.2-17.1 6.2c-7.1 0-13-2.3-17.5-6.7-4.5-4.5-6.6-10.5-6.6-17.9zm35.1-4.9c1.9 0 3.4-1.8 2.9-3.7q-0.9-3.5-3.8-6.3c-2.9-2.7-6.3-4.1-10.3-4.1-4.4 0-8.2 1.4-11.3 4.1q-2.9 2.6-4.2 5.9c-0.8 2 0.7 4.1 2.8 4.1zm-86.2 39.5c1-1.6 3-2 4.6-1.1 5.1 3.1 10.5 4.6 16.3 4.6 5 0 8.9-1.1 11.9-3.5 3.3-2.8 4.9-7.7 4.9-14.8v-4c-2.8 4.8-8.4 8.5-17 8.5-6.8 0-12.6-2.4-17.2-7-4.7-4.8-7.1-10.8-7.1-17.9 0-7.1 2.4-13.1 7.1-17.9 4.6-4.7 10.4-7.1 17.2-7.1 8.6 0 14.2 3.7 17 8.6v-3.8c0-1.9 1.5-3.4 3.3-3.4h0.4c1.8 0 3.3 1.5 3.3 3.4v36.6c0 6.1-0.4 11.1-1.4 14.6-0.8 3.6-2.9 6.7-6.2 9.2-4.2 3.4-9.6 5.1-16.1 5.1-7.3 0-13.9-1.9-19.9-5.5-1.6-0.9-2.1-3.1-1.1-4.6zm33.4-22.1q5.2-5.3 5.2-13.1 0-7.8-5.2-13.1c-3.3-3.5-7.6-5.3-12.7-5.3-5 0-9 1.8-12.4 5.3q-4.8 5.3-4.8 13.1 0 7.8 4.8 13.1c3.4 3.5 7.4 5.3 12.4 5.3 5.1 0 9.4-1.8 12.7-5.3zm-64.9 8.2v-41.9c0-1.6 1.3-3 3-3h1c1.7 0 3 1.4 3 3v5.1c2.6-5.3 7.8-8.8 14.8-8.8q0 0 0 0c1.6 0 2.9 1.3 2.9 2.9v1.4c0 1.8-1.4 3.1-3.2 3q-0.7 0-1.6 0c-7.5 0-12.9 5.5-12.9 13.5v24.8c0 1.7-1.3 3-3 3h-1c-1.7 0-3-1.3-3-3zm-54.5-20.7c0-7.7 2.3-13.9 6.7-18.6 4.5-4.6 10.3-7 17.3-7 6.5 0 11.7 2.3 15.8 6.9 4.1 4.6 6.2 10.2 6.2 17 0 1.7-1.3 3-3 3h-32.6c-1.9 0-3.3 1.8-3 3.6 1.7 8.5 8 13.7 16.7 13.7 5.5 0 9.2-1.5 12.7-4.6 1.2-1.1 3-1.1 4.2 0l0.4 0.4c1.2 1.2 1.2 3.2-0.1 4.4q-7 6.2-17.2 6.2c-7.1 0-13-2.3-17.5-6.8-4.4-4.4-6.6-10.4-6.6-17.8zm35.1-4.9c1.9 0 3.4-1.8 2.9-3.7q-0.9-3.5-3.8-6.3c-2.8-2.7-6.3-4.2-10.2-4.2-4.4 0-8.2 1.5-11.4 4.2q-2.9 2.6-4.2 5.8c-0.7 2 0.7 4.2 2.8 4.2zm-48.6 25.1v-40.9c0-1.9 1.6-3.5 3.6-3.5 1.9 0 3.5 1.6 3.5 3.5v40.9c0 2-1.6 3.5-3.5 3.5-2 0-3.6-1.5-3.6-3.5zm0.2-53.7c-1.9-1.9-1.9-5 0-6.8 1.9-1.9 4.8-1.9 6.7 0 1.9 1.8 1.9 4.9 0 6.8-1.9 1.8-4.8 1.8-6.7 0zm-9.9 17.4l-0.2 0.2c-1.1 1.3-3 1.5-4.3 0.4q-4.9-3.6-11.6-3.6c-5.3 0-9.7 1.8-13.2 5.5-3.6 3.5-5.3 7.9-5.3 13.4 0 5.4 1.7 9.9 5.3 13.5 3.5 3.5 7.9 5.3 13.2 5.3 4.5 0 8.4-1.2 11.6-3.6 1.3-1 3.2-0.9 4.3 0.4l0.2 0.2c1.2 1.3 1.1 3.4-0.3 4.5-4.3 3.4-9.6 5.1-15.8 5.1-7.1 0-13.1-2.4-18.1-7.3-4.9-4.8-7.4-10.9-7.4-18.1 0-7.3 2.5-13.3 7.4-18.1 5-4.9 11-7.3 18.1-7.3 6.2 0 11.5 1.6 15.8 5 1.4 1.1 1.5 3.2 0.3 4.5zm-90.1 36.3v-40.9c0-1.9 1.6-3.5 3.5-3.5 2 0 3.5 1.6 3.5 3.5v4.6c2.7-5.5 8.5-9 15.9-8.9 9.7 0.2 17.3 8.4 17.3 18.1v27.1c0 2-1.5 3.5-3.5 3.5-1.9 0-3.5-1.5-3.5-3.5v-25.6c0-7.8-4.7-12.8-12.1-13-7.8-0.2-14.1 6.2-14.1 13.9v24.7c0 2-1.5 3.5-3.5 3.5-1.9 0-3.5-1.5-3.5-3.5zm-59.7-20.4c0-7.3 2.5-13.3 7.4-18.1 4.9-4.9 10.9-7.3 18.1-7.3 7.1 0 13.1 2.4 18 7.3 5 4.8 7.5 10.8 7.5 18.1 0 7.2-2.5 13.3-7.5 18.1-4.9 4.9-10.9 7.3-18 7.3-7.2 0-13.2-2.4-18.1-7.3-4.9-4.8-7.4-10.9-7.4-18.1zm7 0c0 5.4 1.7 9.9 5.2 13.5 3.6 3.5 7.9 5.3 13.3 5.3 5.3 0 9.7-1.8 13.2-5.3 3.5-3.6 5.2-8.1 5.2-13.5 0-5.5-1.7-9.9-5.2-13.4-3.5-3.7-7.9-5.5-13.2-5.5-5.4 0-9.7 1.8-13.3 5.5-3.5 3.5-5.2 7.9-5.2 13.4zm-14.6-15.9l-0.1 0.2c-1.1 1.3-3 1.5-4.4 0.4-3.2-2.3-7.1-3.6-11.6-3.6-5.3 0-9.7 1.8-13.2 5.5-3.5 3.5-5.2 7.9-5.2 13.4 0 5.4 1.7 9.9 5.2 13.5 3.5 3.5 7.9 5.3 13.2 5.3 4.5 0 8.4-1.2 11.6-3.6 1.4-1 3.3-0.9 4.4 0.4l0.1 0.2c1.2 1.3 1.1 3.4-0.3 4.5-4.3 3.4-9.6 5.1-15.8 5.1-7.1 0-13.1-2.4-18.1-7.3-4.9-4.8-7.4-10.9-7.4-18.1 0-7.3 2.5-13.3 7.4-18.1 5-4.9 11-7.3 18.1-7.3 6.2 0 11.5 1.6 15.8 5 1.4 1.1 1.5 3.2 0.3 4.5z"/></svg>